<svg width="34" height="34" viewBox="0 0 34 34" fill="none" xmlns="http://www.w3.org/2000/svg">
<path d="M7.31809 14.384C7.19149 12.7384 8.49262 11.3333 10.1431 11.3333H23.857C25.5076 11.3333 26.8087 12.7384 26.6821 14.384L25.7012 27.134C25.5878 28.6101 24.3568 29.75 22.8763 29.75H11.1238C9.64332 29.75 8.4124 28.6101 8.29884 27.134L7.31809 14.384Z" stroke="#CDCDCD"/>
<path d="M27.625 7.08334H6.375" stroke="#CDCDCD" stroke-linecap="round"/>
<path d="M14.1667 4.25C14.1667 3.46761 14.801 2.83334 15.5834 2.83334H18.4167C19.1992 2.83334 19.8334 3.46761 19.8334 4.25V7.08334H14.1667V4.25Z" stroke="#CDCDCD"/>
<path d="M19.8333 17V24.0833" stroke="#CDCDCD" stroke-linecap="round"/>
<path d="M14.1667 17V24.0833" stroke="#CDCDCD" stroke-linecap="round"/>
</svg>
