<svg width="28" height="28" viewBox="0 0 28 28" fill="none" xmlns="http://www.w3.org/2000/svg">
<path d="M14.3454 6.98211L1 20.3274V27H7.67272L21.0182 13.6547M14.3454 6.98211L19.1308 2.19673L19.1338 2.19389C19.7924 1.53517 20.1224 1.20523 20.5027 1.08165C20.8378 0.972784 21.1987 0.972784 21.5338 1.08165C21.9138 1.20514 22.2435 1.5347 22.9012 2.19249L25.8035 5.09476C26.4641 5.75538 26.7946 6.08584 26.9184 6.46674C27.0273 6.80177 27.0271 7.16266 26.9184 7.49771C26.7948 7.87832 26.4648 8.20828 25.805 8.86795L25.8035 8.86937L21.0182 13.6547M14.3454 6.98211L21.0182 13.6547" stroke="#CDCDCD" stroke-linecap="round" stroke-linejoin="round"/>
</svg>
